<?xml version="1.0" standalone="no"?><!DOCTYPE svg PUBLIC "-//W3C//DTD SVG 1.1//EN" "http://www.w3.org/Graphics/SVG/1.1/DTD/svg11.dtd"><svg t="1546688389383" class="icon" style="" viewBox="0 0 1024 1024" version="1.1" xmlns="http://www.w3.org/2000/svg" p-id="1973" xmlns:xlink="http://www.w3.org/1999/xlink" width="200" height="200"><defs><style type="text/css"></style></defs><path d="M602.5 512L941 173.4c25-25 25-65.5 0-90.5s-65.5-25-90.5 0L512 421.5 173.4 83c-25-25-65.5-25-90.5 0s-25 65.5 0 90.5L421.5 512 83 850.6c-25 25-25 65.5 0 90.5 12.5 12.5 28.9 18.7 45.2 18.7s32.7-6.2 45.2-18.7L512 602.5 850.6 941c25 25 65.5 25 90.5 0 12.5-12.5 18.7-28.9 18.7-45.2s-6.2-32.7-18.7-45.2L602.5 512z" p-id="1974"></path></svg>